<svg width="512" height="512" version="1.1" viewBox="0 0 512 512" xmlns="http://www.w3.org/2000/svg">
    <defs>
        <clipPath id="clipRegle">
            <rect width="100" height="18"/>
        </clipPath>
        <pattern id="patternRegle" width="100" height="18" patternUnits="userSpaceOnUse">
            <path transform="scale(1,3)" d="m97.9 1.51v-1.51m-2.08 1.51v-1.51m-2.08 1.51v-1.51m-4.17 1.51v-1.51m-2.08 1.51v-1.51m-2.08 1.51v-1.51m-4.17 1.51v-1.51m-2.08 1.51v-1.51m-2.08 1.51v-1.51m-4.17 1.51v-1.51m-2.08 1.51v-1.51m-2.08 1.51v-1.51m-4.17 1.51v-1.51m-2.08 1.51v-1.51m-2.08 1.51v-1.51m-4.17 1.51v-1.51m-2.08 1.51v-1.51m-2.08 1.51v-1.51m-4.17 1.51v-1.51m-2.08 1.51v-1.51m-2.08 1.51v-1.51m-4.17 1.51v-1.51m-2.08 1.51v-1.51m-2.08 1.51v-1.51m-4.17 1.51v-1.51m-2.08 1.51v-1.51m-2.08 1.51v-1.51m-4.17 1.51v-1.51m-2.08 1.51v-1.51m-2.08 1.51v-1.51m-4.17 1.51v-1.51m-2.08 1.51v-1.51m-2.08 1.51v-1.51m-4.17 1.51v-1.51m-2.08 1.51v-1.51m-2.08 1.51v-1.51m89.6 2.96v-2.96m-8.33 2.96v-2.96m-16.7 2.96v-2.96m-8.33 2.96v-2.96m-16.7 2.96v-2.96m-8.33 2.96v-2.96m-16.7 2.96v-2.96m-8.33 2.96v-2.96m91.7 6v-6m-100 6v-6m75 4.46v-4.46m-25 4.46v-4.46m-25 4.46v-4.46" clip-path="url(#clipRegle)" opacity="1" stop-color="#000000" stroke="#000" stroke-width=".25"/>
        </pattern>
        <pattern id="patternRegleRoue" href="#patternRegle" width="100" height="18" patternUnits="userSpaceOnUse" patternTransform="scale(4.02,1)"></pattern>
    </defs>
    <g>
        <rect width="512" height="512" fill="#e5e5ff"/>
        <path d="m0 320a64 64 0 0 0-64 64 64 64 0 0 0 64 64 64 64 0 0 0 64-64 64 64 0 0 0-64-64zm-13.5 10.8c0.769-0.0543 1.56 0.113 2.28 0.527 1.91 1.1 2.57 3.55 1.46 5.46-1.1 1.91-3.55 2.57-5.46 1.46-1.91-1.1-2.57-3.55-1.46-5.46 0.69-1.2 1.9-1.9 3.19-1.99zm26.9 0c1.28 0.0905 2.5 0.794 3.19 1.99 1.1 1.91 0.45 4.36-1.46 5.46s-4.36 0.448-5.46-1.46c-1.1-1.91-0.448-4.36 1.46-5.46 0.717-0.414 1.51-0.582 2.28-0.527zm-49.5 13.2c2.21 0 4 1.79 4 4s-1.79 4-4 4-4-1.79-4-4 1.79-4 4-4zm72 0c2.21 0 4 1.79 4 4s-1.79 4-4 4-4-1.79-4-4 1.79-4 4-4zm-84.9 22.8c1.28 0.0905 2.5 0.794 3.19 1.99 1.1 1.91 0.448 4.36-1.46 5.46-1.91 1.1-4.36 0.448-5.46-1.46-1.1-1.91-0.45-4.36 1.46-5.46 0.717-0.414 1.51-0.582 2.28-0.527zm97.8 0c0.769-0.0543 1.56 0.113 2.28 0.527 1.91 1.1 2.57 3.55 1.46 5.46-1.1 1.91-3.55 2.57-5.46 1.46-1.91-1.1-2.57-3.55-1.46-5.46 0.69-1.2 1.9-1.9 3.19-1.99zm-48.9 9.17 6.93 4v8l-6.93 4-6.93-4v-8l6.93-4zm-49.5 17.2c0.769-0.0543 1.56 0.113 2.28 0.527 1.91 1.1 2.57 3.55 1.46 5.46-1.1 1.91-3.55 2.57-5.46 1.46-1.91-1.1-2.57-3.55-1.46-5.46 0.69-1.2 1.9-1.9 3.19-1.99zm98.9 0c1.28 0.0905 2.5 0.796 3.19 1.99 1.1 1.91 0.45 4.36-1.46 5.46s-4.36 0.45-5.46-1.46-0.448-4.36 1.46-5.46c0.717-0.414 1.51-0.582 2.28-0.527zm-85.5 22.8c2.21 0 4 1.79 4 4s-1.79 4-4 4-4-1.79-4-4 1.79-4 4-4zm72 0c2.21 0 4 1.79 4 4s-1.79 4-4 4-4-1.79-4-4 1.79-4 4-4zm-48.9 13.2c1.28 0.0905 2.5 0.796 3.19 1.99 1.1 1.91 0.448 4.36-1.46 5.46-1.91 1.1-4.36 0.45-5.46-1.46s-0.45-4.36 1.46-5.46c0.717-0.414 1.51-0.582 2.28-0.527zm25.8 0c0.769-0.0543 1.56 0.113 2.28 0.527 1.91 1.1 2.57 3.55 1.46 5.46-1.1 1.91-3.55 2.57-5.46 1.46-1.91-1.1-2.57-3.55-1.46-5.46 0.69-1.2 1.9-1.9 3.19-1.99z"/>
        <rect y="448" width="512" height="64" fill="#fF0"/>
        <rect y="448" width="512" height="64" fill="url(#patternRegleRoue)"/>
    </g>
    <rect x="-818" y="-382" width="100" height="6" fill="none"/>
    <rect width="100" height="6" fill="url(#patternRegle)"/>
    <rect x="-8.68" y="-54.8" width="88.5" height="27.2" fill="url(#patternRegle)" stop-color="#000000" stroke-width=".5"/>
</svg>
